<svg width="200" height="160" viewBox="0 0 200 160" fill="none" xmlns="http://www.w3.org/2000/svg">
  <!-- Background circle -->
  <circle cx="100" cy="80" r="60" fill="#0D9488" fill-opacity="0.05"/>

  <!-- Folder/Document stack -->
  <rect x="60" y="50" width="80" height="60" rx="6" fill="white" stroke="#E7E5E4" stroke-width="2"/>
  <rect x="55" y="55" width="80" height="60" rx="6" fill="white" stroke="#E7E5E4" stroke-width="2"/>
  <rect x="50" y="60" width="80" height="60" rx="6" fill="white" stroke="#0D9488" stroke-width="2"/>

  <!-- Folder tab -->
  <path d="M50 70 L50 66 Q50 60 56 60 L74 60 L78 66 L124 66 Q130 66 130 72 L130 120 Q130 126 124 126 L56 126 Q50 126 50 120 L50 70" fill="white" stroke="#0D9488" stroke-width="2"/>

  <!-- Plus icon in center -->
  <circle cx="90" cy="93" r="16" fill="#0D9488" fill-opacity="0.1" stroke="#0D9488" stroke-width="2" stroke-dasharray="4 2"/>
  <path d="M90 86 L90 100 M83 93 L97 93" stroke="#0D9488" stroke-width="2" stroke-linecap="round"/>

  <!-- Decorative dots -->
  <circle cx="150" cy="50" r="3" fill="#F97316"/>
  <circle cx="40" cy="100" r="2" fill="#0D9488"/>
  <circle cx="160" cy="120" r="4" fill="#0D9488" fill-opacity="0.3"/>

  <!-- Text placeholder lines -->
  <rect x="60" y="140" width="80" height="4" rx="2" fill="#E7E5E4"/>
  <rect x="75" y="150" width="50" height="3" rx="1.5" fill="#E7E5E4"/>
</svg>
