<svg width="400" height="300" viewBox="0 0 400 300" fill="none" xmlns="http://www.w3.org/2000/svg">
  <!-- Background elements -->
  <circle cx="200" cy="150" r="120" fill="#0D9488" fill-opacity="0.05"/>
  <circle cx="320" cy="80" r="40" fill="#F97316" fill-opacity="0.05"/>
  <circle cx="80" cy="220" r="30" fill="#0D9488" fill-opacity="0.05"/>

  <!-- Dashboard/Screen -->
  <rect x="120" y="60" width="160" height="120" rx="8" fill="white" stroke="#E7E5E4" stroke-width="2"/>

  <!-- Dashboard content - Shield -->
  <path d="M200 80 L220 88 L220 104 C220 116 212 126 200 130 C188 126 180 116 180 104 L180 88 L200 80Z" fill="#0D9488" fill-opacity="0.2" stroke="#0D9488" stroke-width="2"/>
  <path d="M194 102 L198 106 L208 96" stroke="#0D9488" stroke-width="2" stroke-linecap="round" stroke-linejoin="round"/>

  <!-- Progress bars -->
  <rect x="140" y="140" width="80" height="8" rx="4" fill="#E7E5E4"/>
  <rect x="140" y="140" width="56" height="8" rx="4" fill="#0D9488"/>
  <rect x="140" y="155" width="60" height="8" rx="4" fill="#E7E5E4"/>
  <rect x="140" y="155" width="42" height="8" rx="4" fill="#F97316"/>

  <!-- Checkmarks -->
  <circle cx="240" cy="144" r="6" fill="#10B981"/>
  <path d="M237 144 L239 146 L243 142" stroke="white" stroke-width="1.5" stroke-linecap="round" stroke-linejoin="round"/>
  <circle cx="240" cy="159" r="6" fill="#10B981"/>
  <path d="M237 159 L239 161 L243 157" stroke="white" stroke-width="1.5" stroke-linecap="round" stroke-linejoin="round"/>

  <!-- Person illustration -->
  <!-- Head -->
  <circle cx="100" cy="140" r="24" fill="#F97316" fill-opacity="0.15"/>
  <circle cx="100" cy="140" r="20" fill="white" stroke="#0D9488" stroke-width="2"/>

  <!-- Face features -->
  <circle cx="94" cy="138" r="2" fill="#0D9488"/>
  <circle cx="106" cy="138" r="2" fill="#0D9488"/>
  <path d="M96 146 Q100 150 104 146" stroke="#0D9488" stroke-width="1.5" fill="none" stroke-linecap="round"/>

  <!-- Body -->
  <path d="M80 220 L80 180 Q80 165 100 165 Q120 165 120 180 L120 220" fill="#0D9488" fill-opacity="0.1" stroke="#0D9488" stroke-width="2"/>

  <!-- Arms pointing at screen -->
  <path d="M120 180 Q140 175 145 150" stroke="#0D9488" stroke-width="2" fill="none" stroke-linecap="round"/>

  <!-- Floating elements -->
  <!-- Document icon -->
  <rect x="300" y="100" width="40" height="50" rx="4" fill="white" stroke="#E7E5E4" stroke-width="2"/>
  <rect x="308" y="112" width="24" height="3" rx="1.5" fill="#E7E5E4"/>
  <rect x="308" y="120" width="18" height="3" rx="1.5" fill="#E7E5E4"/>
  <rect x="308" y="128" width="20" height="3" rx="1.5" fill="#E7E5E4"/>
  <circle cx="320" cy="140" r="8" fill="#10B981"/>
  <path d="M316 140 L319 143 L324 137" stroke="white" stroke-width="1.5" stroke-linecap="round" stroke-linejoin="round"/>

  <!-- Clock/reminder icon -->
  <circle cx="60" cy="100" r="20" fill="white" stroke="#F97316" stroke-width="2"/>
  <path d="M60 92 L60 100 L66 104" stroke="#F97316" stroke-width="2" stroke-linecap="round"/>

  <!-- Small decorative elements -->
  <circle cx="350" cy="200" r="4" fill="#0D9488"/>
  <circle cx="40" cy="160" r="3" fill="#F97316"/>
  <circle cx="360" cy="140" r="2" fill="#0D9488"/>
</svg>
