<svg width="200" height="200" viewBox="0 0 200 200" fill="none" xmlns="http://www.w3.org/2000/svg">
  <!-- Background glow -->
  <circle cx="100" cy="100" r="80" fill="#0D9488" fill-opacity="0.05"/>
  <circle cx="100" cy="100" r="60" fill="#0D9488" fill-opacity="0.05"/>

  <!-- Shield main shape -->
  <path d="M100 20 L150 40 L150 90 C150 130 130 160 100 180 C70 160 50 130 50 90 L50 40 L100 20Z" fill="white" stroke="#0D9488" stroke-width="3"/>

  <!-- Shield inner gradient/fill -->
  <path d="M100 35 L140 50 L140 90 C140 122 124 148 100 165 C76 148 60 122 60 90 L60 50 L100 35Z" fill="#0D9488" fill-opacity="0.1"/>

  <!-- Checkmark -->
  <path d="M80 95 L93 108 L120 81" stroke="#0D9488" stroke-width="5" stroke-linecap="round" stroke-linejoin="round"/>

  <!-- Decorative elements around shield -->
  <!-- Lock icon -->
  <circle cx="165" cy="60" r="12" fill="white" stroke="#F97316" stroke-width="2"/>
  <rect x="159" y="58" width="12" height="10" rx="2" fill="#F97316"/>
  <path d="M162 58 L162 54 Q162 50 165 50 Q168 50 168 54 L168 58" stroke="#F97316" stroke-width="2" fill="none"/>

  <!-- Document check -->
  <rect x="25" y="50" width="24" height="30" rx="3" fill="white" stroke="#0D9488" stroke-width="2"/>
  <rect x="30" y="58" width="14" height="2" rx="1" fill="#E7E5E4"/>
  <rect x="30" y="63" width="10" height="2" rx="1" fill="#E7E5E4"/>
  <circle cx="42" cy="73" r="5" fill="#10B981"/>
  <path d="M39 73 L41 75 L45 71" stroke="white" stroke-width="1.5" stroke-linecap="round" stroke-linejoin="round"/>

  <!-- Stars/sparkles -->
  <circle cx="170" cy="140" r="3" fill="#F97316"/>
  <circle cx="30" cy="130" r="2" fill="#0D9488"/>
  <circle cx="160" cy="170" r="2" fill="#0D9488"/>
  <circle cx="45" cy="165" r="3" fill="#F97316"/>

  <!-- Small plus signs indicating security features -->
  <path d="M175 100 L175 108 M171 104 L179 104" stroke="#0D9488" stroke-width="2" stroke-linecap="round"/>
  <path d="M25 100 L25 106 M22 103 L28 103" stroke="#F97316" stroke-width="1.5" stroke-linecap="round"/>
</svg>
